Coordinates
version=1
nRows=15
nColumns=42
inDegrees=yes

Units are S.I. units (second, meters, Newtons, ...)
If the header above contains a line with 'inDegrees', this indicates whether rotational values are in degrees (yes) or radians (no).

endheader
time	pelvis_tilt	pelvis_list	pelvis_rotation	pelvis_tx	pelvis_ty	pelvis_tz	hip_flexion_r	hip_adduction_r	hip_rotation_r	knee_angle_r	knee_adduction_r	knee_angle_r_beta	ankle_angle_r	subtalar_angle_r	mtp_angle_r	hip_flexion_l	hip_adduction_l	hip_rotation_l	knee_angle_l	knee_adduction_l	knee_angle_l_beta	ankle_angle_l	subtalar_angle_l	mtp_angle_l	lumbar_extension	lumbar_bending	lumbar_rotation	arm_flex_r	arm_add_r	arm_rot_r	elbow_flex_r	pro_sup_r	wrist_flex_r	wrist_dev_r	arm_flex_l	arm_add_l	arm_rot_l	elbow_flex_l	pro_sup_l	wrist_flex_l	wrist_dev_l
      1.00000000	      5.39776216	     -0.44145769	     -1.67930948	     -0.61922772	      0.93385052	     -0.09270020	     11.02639398	     -8.18405418	    -23.54258111	     34.24625597	      1.80773080	      0.59770992	     15.04827799	     14.55200997	     -9.67317347	     -3.92109601	     -2.50909881	    -17.37229426	     27.29289029	      1.11162655	      0.47635080	     23.27090677	      3.11824195	     -9.67317347	    -16.52090759	      0.08854853	     -1.60509240	      7.65316723	     -9.22887291	     -0.54900655	     35.92808249	     90.00000001	      0.00000000	      0.00000000	    -13.62984099	     -8.98475011	     -3.79831012	     52.04811135	     90.00000001	      0.00000000	      0.00000000
      1.01000000	      5.24696370	     -0.40057139	     -1.76154878	     -0.61732068	      0.93362727	     -0.09144130	     11.09464162	     -8.13966049	    -23.53513407	     34.27400227	      1.79809419	      0.59819419	     15.08320924	     14.55175421	     -9.67046407	     -3.91466901	     -2.53267962	    -17.39867915	     27.26205471	      1.10724488	      0.47581262	     23.27004029	      3.12030392	     -9.67046407	    -16.50830977	      0.15131446	     -1.70660023	      7.86612720	     -9.17209059	     -0.53427093	     36.05147230	     90.00000001	      0.00000000	      0.00000000	    -13.54792128	     -8.96860576	     -3.75623410	     52.07913359	     90.00000001	      0.00000000	      0.00000000
      1.02000000	      4.99716452	     -0.41960996	     -1.87033186	     -0.61531400	      0.93314149	     -0.09001493	     11.36971794	     -7.91922460	    -23.38482331	     34.45764996	      1.58532240	      0.60139944	     15.45596363	     14.47775375	     -9.64317827	     -3.78507559	     -2.67545116	    -17.55838678	     27.30220354	      1.09619392	      0.47651334	     23.28722005	      3.18147113	     -9.64317827	    -16.35785891	      0.28163472	     -1.81591210	      8.00177097	     -9.15471485	     -0.35810324	     36.35855525	     90.00000001	      0.00000000	      0.00000000	    -13.62223575	     -9.05042627	     -3.49347258	     52.23007003	     90.00000001	      0.00000000	      0.00000000
      1.03000000	      4.85040747	     -0.37682008	     -1.91520973	     -0.61347167	      0.93296936	     -0.08881586	     11.43332712	     -7.87007051	    -23.33085442	     34.48565765	      1.59133646	      0.60188827	     15.48967328	     14.47613550	     -9.63991613	     -3.76153180	     -2.69592694	    -17.58587856	     27.28173254	      1.06301012	      0.47615606	     23.28565561	      3.19339996	     -9.63991613	    -16.36382159	      0.35779309	     -1.95962189	      8.20919342	     -9.09359013	     -0.32620174	     36.50366920	     90.00000001	      0.00000000	      0.00000000	    -13.53010202	     -9.04739890	     -3.44188326	     52.25820185	     90.00000001	      0.00000000	      0.00000000
      1.04000000	      4.70317232	     -0.35798276	     -1.93050892	     -0.61152073	      0.93278852	     -0.08764769	     11.49406145	     -7.76994379	    -23.18020127	     34.53603528	      1.57536095	      0.60276753	     15.58816573	     14.44812505	     -9.63508368	     -3.73121992	     -2.74124168	    -17.61924678	     27.27655575	      0.98276573	      0.47606571	     23.26376686	      3.22041593	     -9.63508368	    -16.34417727	      0.48259285	     -2.17020085	      8.39856129	     -9.03384127	     -0.26864628	     36.70868123	     90.00000001	      0.00000000	      0.00000000	    -13.52241481	     -9.06538383	     -3.36036303	     52.27740409	     90.00000001	      0.00000000	      0.00000000
      1.05000000	      4.55242605	     -0.32169557	     -1.95500162	     -0.60969035	      0.93268127	     -0.08649052	     11.55155779	     -7.69848667	    -23.06352760	     34.54817693	      1.58331889	      0.60297944	     15.68437029	     14.40642910	     -9.63167079	     -3.68300630	     -2.77140818	    -17.65506142	     27.28485607	      0.92810271	      0.47621057	     23.23663188	      3.24661877	     -9.63167079	    -16.34648785	      0.57973145	     -2.33221495	      8.57369767	     -8.98234046	     -0.21047245	     36.89085429	     90.00000001	      0.00000000	      0.00000000	    -13.44953600	     -9.06660548	     -3.29122097	     52.32751113	     90.00000001	      0.00000000	      0.00000000
      1.06000000	      4.27819122	     -0.39677534	     -1.97241489	     -0.60785282	      0.93226605	     -0.08525504	     11.67828315	     -7.41674453	    -22.38075454	     34.46789701	      1.84571692	      0.60157829	     16.26041162	     13.67997673	     -9.59880311	     -3.31215162	     -2.99346584	    -18.01374035	     27.69830662	      0.69320805	      0.48342665	     23.14630923	      3.55371343	     -9.59880311	    -16.19628153	      0.82211683	     -2.46022475	      8.49408824	     -9.15372082	      0.44018780	     37.60448493	     90.00000001	      0.00000000	      0.00000000	    -13.53347514	     -9.20196995	     -2.89342224	     52.58311058	     90.00000001	      0.00000000	      0.00000000
      1.07000000	      4.15034174	     -0.33810917	     -2.00718176	     -0.60605315	      0.93225115	     -0.08406589	     11.71228919	     -7.37566491	    -22.27436784	     34.47841827	      1.84370060	      0.60176192	     16.24464009	     13.62617992	     -9.59537416	     -3.28107770	     -3.00702947	    -18.04198981	     27.71450748	      0.65093127	      0.48370941	     23.14556821	      3.59269750	     -9.59537416	    -16.22963334	      0.89486948	     -2.59319732	      8.66952313	     -9.11021315	      0.50238372	     37.74558116	     90.00000001	      0.00000000	      0.00000000	    -13.44980144	     -9.20152156	     -2.85508153	     52.59132199	     90.00000001	      0.00000000	      0.00000000
      1.08000000	      3.89861027	     -0.46869550	     -2.05656250	     -0.60438714	      0.93199978	     -0.08281612	     11.78285582	     -7.03711022	    -21.45716043	     34.28796340	      2.23553182	      0.59843786	     16.24341379	     12.35442593	     -9.54291652	     -2.86192176	     -3.34378949	    -18.59433571	     28.29225141	      0.37170726	      0.49379294	     23.18705886	      4.18952194	     -9.54291652	    -16.12862362	      1.20261414	     -2.67316652	      8.60333752	     -9.39528099	      1.48727387	     38.47066679	     90.00000001	      0.00000000	      0.00000000	    -13.44216795	     -9.23826380	     -2.61819408	     52.69740861	     90.00000001	      0.00000000	      0.00000000
      1.09000000	      3.78404366	     -0.38980564	     -2.12331454	     -0.60260947	      0.93209428	     -0.08157256	     11.79072848	     -7.01527520	    -21.38849969	     34.27030385	      2.22917565	      0.59812964	     16.25005685	     12.32450933	     -9.54015177	     -2.82197063	     -3.32939742	    -18.58775384	     28.34389360	      0.33526129	      0.49469427	     23.15882025	      4.22641658	     -9.54015177	    -16.17475966	      1.25640087	     -2.76637084	      8.75543622	     -9.34602177	      1.51967507	     38.58010688	     90.00000001	      0.00000000	      0.00000000	    -13.36150982	     -9.24999527	     -2.60899278	     52.71677898	     90.00000001	      0.00000000	      0.00000000
      1.10000000	      3.68175275	     -0.30361476	     -2.18708534	     -0.60080066	      0.93221973	     -0.08036200	     11.75928959	     -7.00104662	    -21.30137971	     34.22302712	      2.23372797	      0.59730450	     16.28240966	     12.29287640	     -9.53743165	     -2.74929137	     -3.31087199	    -18.57498804	     28.48590637	      0.27847844	      0.49717286	     23.07917961	      4.26160123	     -9.53743165	    -16.21205421	      1.31930104	     -2.84601861	      8.91521334	     -9.30889214	      1.56332666	     38.72712497	     90.00000001	      0.00000000	      0.00000000	    -13.30815707	     -9.25308063	     -2.59599031	     52.74774139	     90.00000001	      0.00000000	      0.00000000
      1.11000000	      3.53790864	     -0.31969417	     -2.09256580	     -0.59925601	      0.93226574	     -0.07933775	     11.61537567	     -6.86999971	    -20.99607797	     33.90919733	      2.48545907	      0.59182714	     16.48348262	     12.05704095	     -9.52145119	     -2.23746649	     -3.51836978	    -18.76178073	     29.39100230	      0.00107411	      0.51296976	     22.61180338	      4.33954688	     -9.52145119	    -16.25808010	      1.52081529	     -3.06368887	      8.91766623	     -9.39237551	      1.88788743	     39.22948690	     90.00000001	      0.00000000	      0.00000000	    -13.30683261	     -9.29401684	     -2.58205787	     52.95411693	     90.00000001	      0.00000000	      0.00000000
      1.12000000	      3.38472909	     -0.31579619	     -2.13973995	     -0.59768300	      0.93232586	     -0.07810187	     11.59323235	     -6.74321656	    -20.85189084	     33.73877908	      2.54658637	      0.58885278	     16.51193375	     11.85228516	     -9.50614222	     -1.81193142	     -3.72064072	    -18.93448900	     30.14796159	     -0.12263151	      0.52618119	     22.39870577	      4.38385326	     -9.50614222	    -16.28787117	      1.67770367	     -3.09698673	      8.92615801	     -9.50461458	      2.24800088	     39.58304458	     90.00000001	      0.00000000	      0.00000000	    -13.25995190	     -9.30696114	     -2.57298145	     53.08119398	     90.00000001	      0.00000000	      0.00000000
      1.13000000	      3.15951221	     -0.37308887	     -2.19206765	     -0.59607224	      0.93226629	     -0.07687793	     11.61779479	     -6.57805359	    -20.81858455	     33.53901992	      2.65122949	      0.58536633	     16.52921742	     11.68216086	     -9.48514074	     -1.23727445	     -4.01713468	    -19.14052275	     31.07066819	     -0.27601560	      0.54228546	     22.14254232	      4.41462707	     -9.48514074	    -16.21589982	      1.91320873	     -3.12749796	      8.94134711	     -9.66545123	      2.71952798	     39.99472575	     90.00000001	      0.00000000	      0.00000000	    -13.25282641	     -9.29434790	     -2.56126083	     53.22104704	     90.00000001	      0.00000000	      0.00000000
      1.14000000	      2.89966911	     -0.45037065	     -2.24657287	     -0.59454007	      0.93215971	     -0.07563681	     11.70737529	     -6.35902256	    -20.87323834	     33.35294129	      2.63503110	      0.58211864	     16.53193945	     11.61427979	     -9.45130531	     -0.51747990	     -4.37232332	    -19.31086823	     32.19515349	     -0.43644567	      0.56191143	     21.91006444	      4.43883259	     -9.45130531	    -16.10836398	      2.17853084	     -3.10988603	      8.92198763	     -9.90105427	      3.33516741	     40.41128141	     90.00000001	      0.00000000	      0.00000000	    -13.24754166	     -9.27140413	     -2.57056082	     53.36403993	     90.00000001	      0.00000000	      0.00000000
